<svg width="128" height="41" viewBox="0 0 128 41" fill="none" xmlns="http://www.w3.org/2000/svg">
<g clip-path="url(#clip0_7005_26757)">
<rect width="127.863" height="41.2529" rx="10.2894" fill="#474747"/>
<path d="M30.0129 20.0386C30.0254 19.0898 30.2835 18.1596 30.7632 17.3345C31.2429 16.5093 31.9286 15.816 32.7565 15.3191C32.2306 14.5858 31.5368 13.9823 30.7301 13.5566C29.9235 13.1308 29.0263 12.8946 28.1098 12.8666C26.1548 12.6662 24.2594 14.0087 23.2631 14.0087C22.2476 14.0087 20.7137 12.8865 19.062 12.9196C17.9936 12.9533 16.9523 13.2567 16.0397 13.8001C15.1271 14.3434 14.3742 15.1084 13.8544 16.0203C11.6028 19.8263 13.2823 25.4198 15.4391 28.4963C16.5183 30.0028 17.7795 31.6855 19.4298 31.6259C21.0446 31.5605 21.6478 30.6205 23.5971 30.6205C25.5283 30.6205 26.0941 31.6259 27.7779 31.5879C29.5107 31.5605 30.6025 30.0748 31.6438 28.554C32.4192 27.4806 33.0158 26.2943 33.4116 25.0389C32.4049 24.6232 31.5458 23.9274 30.9414 23.0382C30.337 22.149 30.0141 21.1057 30.0129 20.0386Z" fill="white"/>
<path d="M26.8325 10.8426C27.7773 9.7353 28.2428 8.312 28.1301 6.875C26.6866 7.02301 25.3533 7.69655 24.3957 8.7614C23.9275 9.28161 23.5689 9.8868 23.3404 10.5424C23.112 11.198 23.0181 11.8911 23.0641 12.5821C23.7861 12.5894 24.5004 12.4366 25.1531 12.1353C25.8059 11.834 26.3801 11.392 26.8325 10.8426Z" fill="white"/>
<path d="M39.8679 14.7693C39.804 14.7693 39.7547 14.7519 39.7199 14.717C39.685 14.6764 39.6676 14.6271 39.6676 14.569V8.88375C39.6676 8.8199 39.685 8.77056 39.7199 8.73574C39.7547 8.69511 39.804 8.67479 39.8679 8.67479H41.8442C42.4421 8.67479 42.9238 8.76476 43.2895 8.94469C43.6552 9.12462 43.9222 9.39162 44.0905 9.74568C44.2588 10.0939 44.3459 10.5235 44.3517 11.0342C44.3575 11.2954 44.3604 11.5247 44.3604 11.722C44.3604 11.9194 44.3575 12.1458 44.3517 12.4011C44.3401 12.9351 44.2501 13.3792 44.0818 13.7332C43.9193 14.0815 43.6581 14.3427 43.2982 14.5168C42.9441 14.6851 42.474 14.7693 41.8878 14.7693H39.8679ZM40.5208 14.0292H41.8442C42.2447 14.0292 42.564 13.9741 42.8019 13.8638C43.0399 13.7535 43.2111 13.5765 43.3156 13.3327C43.4259 13.0889 43.4839 12.7668 43.4897 12.3663C43.5013 12.1922 43.5071 12.0413 43.5071 11.9136C43.5071 11.7801 43.5071 11.6495 43.5071 11.5218C43.5071 11.3883 43.5013 11.2374 43.4897 11.0691C43.4781 10.506 43.3446 10.091 43.0892 9.82404C42.8338 9.55124 42.4043 9.41484 41.8007 9.41484H40.5208V14.0292ZM47.4116 14.8564C46.9704 14.8564 46.6019 14.7722 46.3059 14.6039C46.0098 14.4355 45.7835 14.2034 45.6268 13.9074C45.47 13.6055 45.383 13.2631 45.3656 12.88C45.3598 12.7813 45.3569 12.6565 45.3569 12.5056C45.3569 12.3489 45.3598 12.2241 45.3656 12.1312C45.383 11.7424 45.47 11.3999 45.6268 11.1039C45.7893 10.8079 46.0185 10.5757 46.3146 10.4074C46.6106 10.239 46.9762 10.1549 47.4116 10.1549C47.8469 10.1549 48.2126 10.239 48.5086 10.4074C48.8046 10.5757 49.031 10.8079 49.1877 11.1039C49.3502 11.3999 49.4402 11.7424 49.4576 12.1312C49.4634 12.2241 49.4663 12.3489 49.4663 12.5056C49.4663 12.6565 49.4634 12.7813 49.4576 12.88C49.4402 13.2631 49.3531 13.6055 49.1964 13.9074C49.0397 14.2034 48.8133 14.4355 48.5173 14.6039C48.2213 14.7722 47.8527 14.8564 47.4116 14.8564ZM47.4116 14.186C47.7714 14.186 48.0587 14.0728 48.2735 13.8464C48.4883 13.6142 48.6043 13.2776 48.6218 12.8365C48.6276 12.7494 48.6305 12.6391 48.6305 12.5056C48.6305 12.3721 48.6276 12.2618 48.6218 12.1748C48.6043 11.7336 48.4883 11.3999 48.2735 11.1735C48.0587 10.9414 47.7714 10.8253 47.4116 10.8253C47.0517 10.8253 46.7615 10.9414 46.5409 11.1735C46.3262 11.3999 46.213 11.7336 46.2014 12.1748C46.1956 12.2618 46.1927 12.3721 46.1927 12.5056C46.1927 12.6391 46.1956 12.7494 46.2014 12.8365C46.213 13.2776 46.3262 13.6142 46.5409 13.8464C46.7615 14.0728 47.0517 14.186 47.4116 14.186ZM51.6389 14.7693C51.5635 14.7693 51.5054 14.7519 51.4648 14.717C51.4242 14.6764 51.3894 14.6213 51.3603 14.5516L50.124 10.5118C50.1124 10.4828 50.1066 10.4538 50.1066 10.4248C50.1066 10.3725 50.124 10.329 50.1589 10.2942C50.1995 10.2594 50.243 10.2419 50.2894 10.2419H50.6725C50.7364 10.2419 50.7857 10.2594 50.8205 10.2942C50.8554 10.329 50.8786 10.3609 50.8902 10.39L51.8566 13.6723L52.8927 10.4248C52.9043 10.3842 52.9275 10.3435 52.9623 10.3029C53.0029 10.2623 53.061 10.2419 53.1364 10.2419H53.4325C53.5079 10.2419 53.566 10.2623 53.6066 10.3029C53.6472 10.3435 53.6704 10.3842 53.6762 10.4248L54.7123 13.6723L55.6787 10.39C55.6845 10.3609 55.7048 10.329 55.7397 10.2942C55.7745 10.2594 55.8238 10.2419 55.8877 10.2419H56.2708C56.323 10.2419 56.3665 10.2594 56.4014 10.2942C56.4362 10.329 56.4536 10.3725 56.4536 10.4248C56.4536 10.4538 56.4478 10.4828 56.4362 10.5118L55.1999 14.5516C55.1825 14.6213 55.1505 14.6764 55.1041 14.717C55.0635 14.7519 55.0025 14.7693 54.9213 14.7693H54.5817C54.5063 14.7693 54.4424 14.7519 54.3902 14.717C54.3437 14.6764 54.3118 14.6213 54.2944 14.5516L53.2845 11.4347L52.2745 14.5516C52.2513 14.6213 52.2165 14.6764 52.17 14.717C52.1236 14.7519 52.0598 14.7693 51.9785 14.7693H51.6389ZM57.6181 14.7693C57.5601 14.7693 57.5108 14.7519 57.4701 14.717C57.4353 14.6764 57.4179 14.6271 57.4179 14.569V10.4422C57.4179 10.3842 57.4353 10.3377 57.4701 10.3029C57.5108 10.2623 57.5601 10.2419 57.6181 10.2419H58.0273C58.0854 10.2419 58.1318 10.2623 58.1666 10.3029C58.2073 10.3377 58.2276 10.3842 58.2276 10.4422V10.8253C58.3785 10.6279 58.5671 10.4683 58.7935 10.3464C59.0257 10.2187 59.3217 10.1549 59.6816 10.1549C60.0588 10.1549 60.3781 10.239 60.6393 10.4074C60.9063 10.5699 61.1065 10.7992 61.24 11.0952C61.3735 11.3854 61.4403 11.7249 61.4403 12.1138V14.569C61.4403 14.6271 61.4228 14.6764 61.388 14.717C61.3532 14.7519 61.3068 14.7693 61.2487 14.7693H60.8134C60.7554 14.7693 60.706 14.7519 60.6654 14.717C60.6306 14.6764 60.6132 14.6271 60.6132 14.569V12.1574C60.6132 11.7511 60.5145 11.4347 60.3171 11.2084C60.1198 10.9762 59.8296 10.8601 59.4465 10.8601C59.0866 10.8601 58.7964 10.9762 58.5758 11.2084C58.3611 11.4347 58.2537 11.7511 58.2537 12.1574V14.569C58.2537 14.6271 58.2334 14.6764 58.1928 14.717C58.1579 14.7519 58.1115 14.7693 58.0535 14.7693H57.6181ZM62.9068 14.7693C62.8488 14.7693 62.7994 14.7519 62.7588 14.717C62.724 14.6764 62.7066 14.6271 62.7066 14.569V8.78798C62.7066 8.72993 62.724 8.6835 62.7588 8.64867C62.7994 8.60804 62.8488 8.58773 62.9068 8.58773H63.316C63.3799 8.58773 63.4292 8.60804 63.464 8.64867C63.4989 8.6835 63.5163 8.72993 63.5163 8.78798V14.569C63.5163 14.6271 63.4989 14.6764 63.464 14.717C63.4292 14.7519 63.3799 14.7693 63.316 14.7693H62.9068ZM66.6694 14.8564C66.2283 14.8564 65.8597 14.7722 65.5637 14.6039C65.2677 14.4355 65.0413 14.2034 64.8846 13.9074C64.7279 13.6055 64.6408 13.2631 64.6234 12.88C64.6176 12.7813 64.6147 12.6565 64.6147 12.5056C64.6147 12.3489 64.6176 12.2241 64.6234 12.1312C64.6408 11.7424 64.7279 11.3999 64.8846 11.1039C65.0471 10.8079 65.2764 10.5757 65.5724 10.4074C65.8684 10.239 66.2341 10.1549 66.6694 10.1549C67.1047 10.1549 67.4704 10.239 67.7664 10.4074C68.0624 10.5757 68.2888 10.8079 68.4455 11.1039C68.608 11.3999 68.698 11.7424 68.7154 12.1312C68.7212 12.2241 68.7241 12.3489 68.7241 12.5056C68.7241 12.6565 68.7212 12.7813 68.7154 12.88C68.698 13.2631 68.611 13.6055 68.4542 13.9074C68.2975 14.2034 68.0712 14.4355 67.7751 14.6039C67.4791 14.7722 67.1105 14.8564 66.6694 14.8564ZM66.6694 14.186C67.0293 14.186 67.3166 14.0728 67.5314 13.8464C67.7461 13.6142 67.8622 13.2776 67.8796 12.8365C67.8854 12.7494 67.8883 12.6391 67.8883 12.5056C67.8883 12.3721 67.8854 12.2618 67.8796 12.1748C67.8622 11.7336 67.7461 11.3999 67.5314 11.1735C67.3166 10.9414 67.0293 10.8253 66.6694 10.8253C66.3096 10.8253 66.0193 10.9414 65.7988 11.1735C65.584 11.3999 65.4708 11.7336 65.4592 12.1748C65.4534 12.2618 65.4505 12.3721 65.4505 12.5056C65.4505 12.6391 65.4534 12.7494 65.4592 12.8365C65.4708 13.2776 65.584 13.6142 65.7988 13.8464C66.0193 14.0728 66.3096 14.186 66.6694 14.186ZM71.0768 14.8564C70.7866 14.8564 70.5225 14.7983 70.2845 14.6822C70.0465 14.5661 69.855 14.4094 69.7099 14.2121C69.5648 14.0147 69.4922 13.7913 69.4922 13.5417C69.4922 13.1412 69.6547 12.822 69.9798 12.584C70.3048 12.346 70.7285 12.1893 71.2509 12.1138L72.5482 11.931V11.6785C72.5482 11.3999 72.4669 11.1822 72.3044 11.0255C72.1477 10.8688 71.8894 10.7905 71.5295 10.7905C71.2683 10.7905 71.0565 10.8427 70.8939 10.9472C70.7372 11.0516 70.6269 11.1851 70.5631 11.3477C70.5283 11.4347 70.4673 11.4783 70.3803 11.4783H69.9885C69.9246 11.4783 69.8753 11.4608 69.8405 11.426C69.8114 11.3854 69.7969 11.339 69.7969 11.2867C69.7969 11.1997 69.8289 11.0923 69.8927 10.9646C69.9624 10.8369 70.0668 10.7121 70.2061 10.5902C70.3454 10.4683 70.5225 10.3667 70.7372 10.2855C70.9578 10.1984 71.2248 10.1549 71.5382 10.1549C71.8865 10.1549 72.1796 10.2013 72.4176 10.2942C72.6555 10.3813 72.8413 10.5002 72.9748 10.6512C73.1141 10.8021 73.2127 10.9733 73.2708 11.1648C73.3346 11.3564 73.3666 11.5508 73.3666 11.7482V14.569C73.3666 14.6271 73.3462 14.6764 73.3056 14.717C73.2708 14.7519 73.2244 14.7693 73.1663 14.7693H72.7658C72.702 14.7693 72.6526 14.7519 72.6178 14.717C72.583 14.6764 72.5656 14.6271 72.5656 14.569V14.1947C72.4901 14.2991 72.3885 14.4036 72.2608 14.5081C72.1332 14.6068 71.9735 14.6909 71.782 14.7606C71.5905 14.8244 71.3554 14.8564 71.0768 14.8564ZM71.2596 14.2034C71.4976 14.2034 71.7152 14.154 71.9126 14.0554C72.1099 13.9509 72.2637 13.7913 72.374 13.5765C72.4901 13.3617 72.5482 13.0919 72.5482 12.7668V12.523L71.5382 12.671C71.1261 12.7291 70.8156 12.8278 70.6066 12.9671C70.3977 13.1006 70.2932 13.2718 70.2932 13.4807C70.2932 13.6433 70.3396 13.7797 70.4325 13.8899C70.5312 13.9944 70.6531 14.0728 70.7982 14.125C70.9491 14.1773 71.1029 14.2034 71.2596 14.2034ZM76.2724 14.8564C75.9532 14.8564 75.6775 14.8012 75.4453 14.6909C75.2131 14.5748 75.0216 14.421 74.8707 14.2295C74.7256 14.0321 74.6153 13.8087 74.5398 13.5591C74.4702 13.3095 74.4295 13.0454 74.4179 12.7668C74.4121 12.6739 74.4092 12.5869 74.4092 12.5056C74.4092 12.4244 74.4121 12.3373 74.4179 12.2444C74.4295 11.9716 74.4702 11.7104 74.5398 11.4608C74.6153 11.2113 74.7256 10.9878 74.8707 10.7905C75.0216 10.5931 75.2131 10.4393 75.4453 10.329C75.6775 10.2129 75.9532 10.1549 76.2724 10.1549C76.6149 10.1549 76.8993 10.2158 77.1256 10.3377C77.352 10.4596 77.5377 10.6105 77.6828 10.7905V8.78798C77.6828 8.72993 77.7003 8.6835 77.7351 8.64867C77.7757 8.60804 77.825 8.58773 77.8831 8.58773H78.301C78.359 8.58773 78.4055 8.60804 78.4403 8.64867C78.4809 8.6835 78.5012 8.72993 78.5012 8.78798V14.569C78.5012 14.6271 78.4809 14.6764 78.4403 14.717C78.4055 14.7519 78.359 14.7693 78.301 14.7693H77.9092C77.8454 14.7693 77.796 14.7519 77.7612 14.717C77.7264 14.6764 77.709 14.6271 77.709 14.569V14.2034C77.5639 14.3891 77.3752 14.5458 77.143 14.6735C76.9109 14.7954 76.6207 14.8564 76.2724 14.8564ZM76.4552 14.1511C76.7454 14.1511 76.9776 14.0844 77.1517 13.9509C77.3259 13.8174 77.4565 13.6491 77.5435 13.4459C77.6306 13.237 77.677 13.0251 77.6828 12.8103C77.6886 12.7175 77.6915 12.6072 77.6915 12.4795C77.6915 12.346 77.6886 12.2328 77.6828 12.1399C77.677 11.9368 77.6277 11.7366 77.5348 11.5392C77.4478 11.3419 77.3143 11.1793 77.1343 11.0516C76.9602 10.924 76.7338 10.8601 76.4552 10.8601C76.1592 10.8601 75.9241 10.9269 75.75 11.0604C75.5759 11.188 75.4511 11.3593 75.3756 11.574C75.3002 11.783 75.2566 12.0094 75.245 12.2531C75.2392 12.4215 75.2392 12.5898 75.245 12.7581C75.2566 13.0019 75.3002 13.2312 75.3756 13.4459C75.4511 13.6549 75.5759 13.8261 75.75 13.9596C75.9241 14.0873 76.1592 14.1511 76.4552 14.1511ZM83.7847 14.8564C83.3436 14.8564 82.975 14.7722 82.679 14.6039C82.3829 14.4355 82.1566 14.2034 81.9999 13.9074C81.8431 13.6055 81.7561 13.2631 81.7387 12.88C81.7329 12.7813 81.73 12.6565 81.73 12.5056C81.73 12.3489 81.7329 12.2241 81.7387 12.1312C81.7561 11.7424 81.8431 11.3999 81.9999 11.1039C82.1624 10.8079 82.3916 10.5757 82.6877 10.4074C82.9837 10.239 83.3494 10.1549 83.7847 10.1549C84.22 10.1549 84.5857 10.239 84.8817 10.4074C85.1777 10.5757 85.4041 10.8079 85.5608 11.1039C85.7233 11.3999 85.8133 11.7424 85.8307 12.1312C85.8365 12.2241 85.8394 12.3489 85.8394 12.5056C85.8394 12.6565 85.8365 12.7813 85.8307 12.88C85.8133 13.2631 85.7262 13.6055 85.5695 13.9074C85.4128 14.2034 85.1864 14.4355 84.8904 14.6039C84.5944 14.7722 84.2258 14.8564 83.7847 14.8564ZM83.7847 14.186C84.1445 14.186 84.4319 14.0728 84.6466 13.8464C84.8614 13.6142 84.9775 13.2776 84.9949 12.8365C85.0007 12.7494 85.0036 12.6391 85.0036 12.5056C85.0036 12.3721 85.0007 12.2618 84.9949 12.1748C84.9775 11.7336 84.8614 11.3999 84.6466 11.1735C84.4319 10.9414 84.1445 10.8253 83.7847 10.8253C83.4248 10.8253 83.1346 10.9414 82.914 11.1735C82.6993 11.3999 82.5861 11.7336 82.5745 12.1748C82.5687 12.2618 82.5658 12.3721 82.5658 12.5056C82.5658 12.6391 82.5687 12.7494 82.5745 12.8365C82.5861 13.2776 82.6993 13.6142 82.914 13.8464C83.1346 14.0728 83.4248 14.186 83.7847 14.186ZM87.1298 14.7693C87.0718 14.7693 87.0225 14.7519 86.9818 14.717C86.947 14.6764 86.9296 14.6271 86.9296 14.569V10.4422C86.9296 10.3842 86.947 10.3377 86.9818 10.3029C87.0225 10.2623 87.0718 10.2419 87.1298 10.2419H87.539C87.5971 10.2419 87.6435 10.2623 87.6784 10.3029C87.719 10.3377 87.7393 10.3842 87.7393 10.4422V10.8253C87.8902 10.6279 88.0788 10.4683 88.3052 10.3464C88.5374 10.2187 88.8334 10.1549 89.1933 10.1549C89.5705 10.1549 89.8898 10.239 90.151 10.4074C90.418 10.5699 90.6182 10.7992 90.7517 11.0952C90.8852 11.3854 90.952 11.7249 90.952 12.1138V14.569C90.952 14.6271 90.9346 14.6764 90.8997 14.717C90.8649 14.7519 90.8185 14.7693 90.7604 14.7693H90.3251C90.2671 14.7693 90.2177 14.7519 90.1771 14.717C90.1423 14.6764 90.1249 14.6271 90.1249 14.569V12.1574C90.1249 11.7511 90.0262 11.4347 89.8288 11.2084C89.6315 10.9762 89.3413 10.8601 88.9582 10.8601C88.5983 10.8601 88.3081 10.9762 88.0876 11.2084C87.8728 11.4347 87.7654 11.7511 87.7654 12.1574V14.569C87.7654 14.6271 87.7451 14.6764 87.7045 14.717C87.6696 14.7519 87.6232 14.7693 87.5652 14.7693H87.1298ZM95.924 14.7693C95.599 14.7693 95.3349 14.7083 95.1317 14.5865C94.9286 14.4588 94.7806 14.2817 94.6877 14.0554C94.5948 13.8232 94.5484 13.5504 94.5484 13.237V10.9385H93.8693C93.8113 10.9385 93.7619 10.921 93.7213 10.8862C93.6865 10.8456 93.669 10.7963 93.669 10.7382V10.4422C93.669 10.3842 93.6865 10.3377 93.7213 10.3029C93.7619 10.2623 93.8113 10.2419 93.8693 10.2419H94.5484V8.78798C94.5484 8.72993 94.5658 8.6835 94.6006 8.64867C94.6413 8.60804 94.6906 8.58773 94.7486 8.58773H95.1578C95.2159 8.58773 95.2623 8.60804 95.2971 8.64867C95.3378 8.6835 95.3581 8.72993 95.3581 8.78798V10.2419H96.4377C96.4957 10.2419 96.5422 10.2623 96.577 10.3029C96.6176 10.3377 96.6379 10.3842 96.6379 10.4422V10.7382C96.6379 10.7963 96.6176 10.8456 96.577 10.8862C96.5422 10.921 96.4957 10.9385 96.4377 10.9385H95.3581V13.176C95.3581 13.4488 95.4045 13.6636 95.4974 13.8203C95.5903 13.977 95.7557 14.0554 95.9937 14.0554H96.5248C96.5828 14.0554 96.6292 14.0757 96.6641 14.1163C96.7047 14.1511 96.725 14.1976 96.725 14.2556V14.569C96.725 14.6271 96.7047 14.6764 96.6641 14.717C96.6292 14.7519 96.5828 14.7693 96.5248 14.7693H95.924ZM97.7665 14.7693C97.7085 14.7693 97.6591 14.7519 97.6185 14.717C97.5837 14.6764 97.5663 14.6271 97.5663 14.569V8.78798C97.5663 8.72993 97.5837 8.6835 97.6185 8.64867C97.6591 8.60804 97.7085 8.58773 97.7665 8.58773H98.2018C98.2657 8.58773 98.315 8.60804 98.3498 8.64867C98.3847 8.6835 98.4021 8.72993 98.4021 8.78798V10.8166C98.5588 10.6192 98.7503 10.4596 98.9767 10.3377C99.2031 10.2158 99.4904 10.1549 99.8386 10.1549C100.216 10.1549 100.535 10.239 100.796 10.4074C101.063 10.5699 101.264 10.7992 101.397 11.0952C101.536 11.3854 101.606 11.7249 101.606 12.1138V14.569C101.606 14.6271 101.589 14.6764 101.554 14.717C101.519 14.7519 101.47 14.7693 101.406 14.7693H100.97C100.912 14.7693 100.863 14.7519 100.822 14.717C100.788 14.6764 100.77 14.6271 100.77 14.569V12.1574C100.77 11.7511 100.672 11.4347 100.474 11.2084C100.277 10.9762 99.9866 10.8601 99.6036 10.8601C99.2437 10.8601 98.9535 10.9762 98.7329 11.2084C98.5124 11.4347 98.4021 11.7511 98.4021 12.1574V14.569C98.4021 14.6271 98.3847 14.6764 98.3498 14.717C98.315 14.7519 98.2657 14.7693 98.2018 14.7693H97.7665ZM104.665 14.8564C104.067 14.8564 103.591 14.6735 103.237 14.3078C102.883 13.9364 102.689 13.4314 102.654 12.7929C102.648 12.7175 102.645 12.6217 102.645 12.5056C102.645 12.3837 102.648 12.2851 102.654 12.2096C102.677 11.7975 102.773 11.4376 102.941 11.13C103.11 10.8166 103.339 10.5757 103.629 10.4074C103.925 10.239 104.271 10.1549 104.665 10.1549C105.106 10.1549 105.475 10.2478 105.771 10.4335C106.073 10.6192 106.302 10.8833 106.459 11.2258C106.615 11.5682 106.694 11.9687 106.694 12.4273V12.5753C106.694 12.6391 106.674 12.6885 106.633 12.7233C106.598 12.7581 106.552 12.7755 106.494 12.7755H103.481C103.481 12.7813 103.481 12.7929 103.481 12.8103C103.481 12.8278 103.481 12.8423 103.481 12.8539C103.493 13.0919 103.545 13.3153 103.638 13.5243C103.731 13.7274 103.864 13.8928 104.038 14.0205C104.213 14.1482 104.421 14.2121 104.665 14.2121C104.874 14.2121 105.048 14.1802 105.188 14.1163C105.327 14.0525 105.44 13.9828 105.527 13.9074C105.614 13.8261 105.672 13.7651 105.701 13.7245C105.754 13.6491 105.794 13.6055 105.823 13.5939C105.852 13.5765 105.899 13.5678 105.963 13.5678H106.38C106.438 13.5678 106.485 13.5852 106.52 13.62C106.56 13.6491 106.578 13.6926 106.572 13.7506C106.566 13.8377 106.52 13.9451 106.433 14.0728C106.346 14.1947 106.221 14.3166 106.058 14.4384C105.896 14.5603 105.698 14.6619 105.466 14.7432C105.234 14.8186 104.967 14.8564 104.665 14.8564ZM103.481 12.1748H105.867V12.1487C105.867 11.8875 105.817 11.6553 105.719 11.4521C105.626 11.249 105.489 11.0894 105.31 10.9733C105.13 10.8514 104.915 10.7905 104.665 10.7905C104.416 10.7905 104.201 10.8514 104.021 10.9733C103.847 11.0894 103.713 11.249 103.62 11.4521C103.528 11.6553 103.481 11.8875 103.481 12.1487V12.1748Z" fill="white"/>
<path d="M39.4919 30.3948C39.4033 30.3948 39.3201 30.3615 39.2426 30.295C39.1761 30.2286 39.1429 30.1455 39.1429 30.0457C39.1429 30.0014 39.1539 29.9515 39.1761 29.8961L43.1818 19.1754C43.2151 19.0646 43.276 18.9704 43.3647 18.8928C43.4644 18.8042 43.5974 18.7598 43.7636 18.7598H45.5753C45.7415 18.7598 45.869 18.8042 45.9576 18.8928C46.0463 18.9704 46.1127 19.0646 46.1571 19.1754L50.1628 29.8961C50.1739 29.9515 50.1794 30.0014 50.1794 30.0457C50.1794 30.1455 50.1462 30.2286 50.0797 30.295C50.0132 30.3615 49.9357 30.3948 49.847 30.3948H48.4009C48.2458 30.3948 48.1295 30.3615 48.0519 30.295C47.9854 30.2175 47.9411 30.1455 47.9189 30.079L47.1377 28.0512H42.2012L41.42 30.079C41.3978 30.1455 41.348 30.2175 41.2704 30.295C41.2039 30.3615 41.0931 30.3948 40.938 30.3948H39.4919ZM42.7829 26.1397H46.556L44.6611 21.0037L42.7829 26.1397ZM51.3893 33.5528C51.2785 33.5528 51.1843 33.514 51.1067 33.4365C51.0291 33.3589 50.9904 33.2647 50.9904 33.1539V22.1506C50.9904 22.0398 51.0291 21.9456 51.1067 21.868C51.1843 21.7905 51.2785 21.7517 51.3893 21.7517H52.7024C52.8242 21.7517 52.9184 21.7905 52.9849 21.868C53.0625 21.9456 53.1013 22.0398 53.1013 22.1506V22.8154C53.3672 22.4609 53.7163 22.1672 54.1484 21.9345C54.5806 21.7018 55.118 21.5855 55.7607 21.5855C56.348 21.5855 56.8577 21.6796 57.2898 21.868C57.722 22.0564 58.0821 22.3279 58.3702 22.6825C58.6583 23.026 58.88 23.436 59.0351 23.9124C59.1902 24.3889 59.2789 24.9153 59.301 25.4915C59.3121 25.6799 59.3176 25.8738 59.3176 26.0732C59.3176 26.2727 59.3121 26.4721 59.301 26.6716C59.2899 27.2256 59.2068 27.7409 59.0517 28.2174C58.8966 28.6828 58.6694 29.0928 58.3702 29.4474C58.0821 29.7909 57.722 30.0623 57.2898 30.2618C56.8577 30.4613 56.348 30.561 55.7607 30.561C55.1623 30.561 54.6526 30.4557 54.2315 30.2452C53.8104 30.0236 53.4669 29.7355 53.201 29.3809V33.1539C53.201 33.2647 53.1622 33.3589 53.0846 33.4365C53.0182 33.514 52.924 33.5528 52.8021 33.5528H51.3893ZM55.1457 28.7825C55.6222 28.7825 55.9934 28.6828 56.2593 28.4833C56.5253 28.2728 56.7136 28.0013 56.8244 27.6689C56.9463 27.3364 57.0184 26.9708 57.0405 26.5719C57.0627 26.2394 57.0627 25.907 57.0405 25.5746C57.0184 25.1757 56.9463 24.81 56.8244 24.4776C56.7136 24.1451 56.5253 23.8792 56.2593 23.6798C55.9934 23.4692 55.6222 23.3639 55.1457 23.3639C54.6914 23.3639 54.3202 23.4692 54.0321 23.6798C53.755 23.8903 53.55 24.1618 53.4171 24.4942C53.2952 24.8155 53.2232 25.148 53.201 25.4915C53.1899 25.6909 53.1844 25.9015 53.1844 26.1231C53.1844 26.3447 53.1899 26.5608 53.201 26.7713C53.2121 27.1037 53.2896 27.4251 53.4337 27.7354C53.5777 28.0345 53.7883 28.2839 54.0653 28.4833C54.3423 28.6828 54.7025 28.7825 55.1457 28.7825ZM61.0411 33.5528C60.9302 33.5528 60.8361 33.514 60.7585 33.4365C60.6809 33.3589 60.6421 33.2647 60.6421 33.1539V22.1506C60.6421 22.0398 60.6809 21.9456 60.7585 21.868C60.8361 21.7905 60.9302 21.7517 61.0411 21.7517H62.3541C62.476 21.7517 62.5702 21.7905 62.6367 21.868C62.7143 21.9456 62.7531 22.0398 62.7531 22.1506V22.8154C63.019 22.4609 63.368 22.1672 63.8002 21.9345C64.2324 21.7018 64.7698 21.5855 65.4125 21.5855C65.9998 21.5855 66.5095 21.6796 66.9416 21.868C67.3738 22.0564 67.7339 22.3279 68.022 22.6825C68.3101 23.026 68.5317 23.436 68.6869 23.9124C68.842 24.3889 68.9307 24.9153 68.9528 25.4915C68.9639 25.6799 68.9694 25.8738 68.9694 26.0732C68.9694 26.2727 68.9639 26.4721 68.9528 26.6716C68.9417 27.2256 68.8586 27.7409 68.7035 28.2174C68.5484 28.6828 68.3212 29.0928 68.022 29.4474C67.7339 29.7909 67.3738 30.0623 66.9416 30.2618C66.5095 30.4613 65.9998 30.561 65.4125 30.561C64.8141 30.561 64.3044 30.4557 63.8833 30.2452C63.4622 30.0236 63.1187 29.7355 62.8528 29.3809V33.1539C62.8528 33.2647 62.814 33.3589 62.7364 33.4365C62.6699 33.514 62.5758 33.5528 62.4539 33.5528H61.0411ZM64.7975 28.7825C65.274 28.7825 65.6452 28.6828 65.9111 28.4833C66.1771 28.2728 66.3654 28.0013 66.4762 27.6689C66.5981 27.3364 66.6702 26.9708 66.6923 26.5719C66.7145 26.2394 66.7145 25.907 66.6923 25.5746C66.6702 25.1757 66.5981 24.81 66.4762 24.4776C66.3654 24.1451 66.1771 23.8792 65.9111 23.6798C65.6452 23.4692 65.274 23.3639 64.7975 23.3639C64.3432 23.3639 63.972 23.4692 63.6839 23.6798C63.4068 23.8903 63.2018 24.1618 63.0689 24.4942C62.947 24.8155 62.8749 25.148 62.8528 25.4915C62.8417 25.6909 62.8362 25.9015 62.8362 26.1231C62.8362 26.3447 62.8417 26.5608 62.8528 26.7713C62.8639 27.1037 62.9414 27.4251 63.0855 27.7354C63.2295 28.0345 63.4401 28.2839 63.7171 28.4833C63.9941 28.6828 64.3542 28.7825 64.7975 28.7825ZM77.756 30.561C76.7255 30.561 75.8612 30.4114 75.1631 30.1122C74.476 29.8019 73.9497 29.403 73.584 28.9155C73.2294 28.4168 73.0411 27.896 73.0189 27.3531C73.0189 27.2533 73.0522 27.1702 73.1186 27.1037C73.1851 27.0373 73.2682 27.004 73.368 27.004H74.8473C74.9913 27.004 75.0966 27.0373 75.1631 27.1037C75.2406 27.1592 75.3071 27.2312 75.3625 27.3198C75.429 27.5304 75.5564 27.7409 75.7448 27.9514C75.9332 28.1509 76.188 28.3171 76.5094 28.4501C76.8418 28.583 77.2574 28.6495 77.756 28.6495C78.5538 28.6495 79.1466 28.5166 79.5345 28.2506C79.9334 27.9847 80.1328 27.6246 80.1328 27.1702C80.1328 26.8489 80.0276 26.594 79.817 26.4057C79.6065 26.2062 79.2796 26.0289 78.8364 25.8738C78.4042 25.7076 77.828 25.5358 77.1078 25.3585C76.2767 25.1591 75.5786 24.9208 75.0135 24.6438C74.4594 24.3557 74.0384 23.9956 73.7502 23.5634C73.4732 23.1312 73.3347 22.5827 73.3347 21.9179C73.3347 21.2752 73.5065 20.7045 73.85 20.2059C74.2046 19.7072 74.7032 19.3139 75.3459 19.0258C75.9997 18.7377 76.7753 18.5936 77.6729 18.5936C78.3931 18.5936 79.0303 18.6933 79.5843 18.8928C80.1384 19.0812 80.5982 19.336 80.9639 19.6574C81.3296 19.9676 81.6066 20.3056 81.795 20.6713C81.9944 21.0259 82.0997 21.3749 82.1108 21.7184C82.1108 21.8071 82.0775 21.8902 82.0111 21.9678C81.9557 22.0342 81.8725 22.0675 81.7617 22.0675H80.216C80.1273 22.0675 80.0387 22.0453 79.95 22.001C79.8614 21.9567 79.7893 21.8736 79.7339 21.7517C79.6674 21.4082 79.4514 21.1145 79.0857 20.8707C78.72 20.627 78.2491 20.5051 77.6729 20.5051C77.0745 20.5051 76.5925 20.6159 76.2268 20.8375C75.8612 21.0591 75.6783 21.4026 75.6783 21.868C75.6783 22.1783 75.767 22.4387 75.9443 22.6492C76.1326 22.8487 76.4263 23.026 76.8252 23.1811C77.2352 23.3362 77.7726 23.5025 78.4375 23.6798C79.3793 23.8903 80.1495 24.1341 80.7478 24.4111C81.3462 24.6881 81.7839 25.0427 82.0609 25.4749C82.3379 25.8959 82.4765 26.4334 82.4765 27.0871C82.4765 27.8185 82.277 28.4445 81.8781 28.9653C81.4903 29.4751 80.9418 29.8684 80.2326 30.1455C79.5234 30.4225 78.6979 30.561 77.756 30.561ZM87.5298 30.3948C86.865 30.3948 86.3054 30.2784 85.8511 30.0457C85.3968 29.813 85.0588 29.4695 84.8372 29.0152C84.6156 28.5498 84.5048 27.9736 84.5048 27.2866V23.5135H83.1917C83.0809 23.5135 82.9867 23.4748 82.9091 23.3972C82.8315 23.3196 82.7928 23.2254 82.7928 23.1146V22.1506C82.7928 22.0398 82.8315 21.9456 82.9091 21.868C82.9867 21.7905 83.0809 21.7517 83.1917 21.7517H84.5048V18.9925C84.5048 18.8817 84.538 18.7875 84.6045 18.71C84.6821 18.6324 84.7818 18.5936 84.9037 18.5936H86.25C86.3608 18.5936 86.455 18.6324 86.5326 18.71C86.6101 18.7875 86.6489 18.8817 86.6489 18.9925V21.7517H88.7266C88.8374 21.7517 88.9316 21.7905 89.0091 21.868C89.0867 21.9456 89.1255 22.0398 89.1255 22.1506V23.1146C89.1255 23.2254 89.0867 23.3196 89.0091 23.3972C88.9316 23.4748 88.8374 23.5135 88.7266 23.5135H86.6489V27.1204C86.6489 27.5747 86.7265 27.9293 86.8816 28.1841C87.0478 28.439 87.3304 28.5664 87.7293 28.5664H88.8762C88.987 28.5664 89.0812 28.6052 89.1587 28.6828C89.2363 28.7603 89.2751 28.8545 89.2751 28.9653V29.9959C89.2751 30.1067 89.2363 30.2009 89.1587 30.2784C89.0812 30.356 88.987 30.3948 88.8762 30.3948H87.5298ZM94.0145 30.561C93.128 30.561 92.3801 30.4059 91.7706 30.0956C91.1722 29.7853 90.7124 29.3476 90.391 28.7825C90.0808 28.2174 89.9035 27.5581 89.8592 26.8046C89.8481 26.6051 89.8425 26.3613 89.8425 26.0732C89.8425 25.7851 89.8481 25.5413 89.8592 25.3419C89.9035 24.5773 90.0863 23.918 90.4077 23.3639C90.7401 22.7988 91.2055 22.3611 91.8039 22.0509C92.4133 21.7406 93.1502 21.5855 94.0145 21.5855C94.8788 21.5855 95.6101 21.7406 96.2085 22.0509C96.818 22.3611 97.2834 22.7988 97.6047 23.3639C97.9371 23.918 98.1255 24.5773 98.1698 25.3419C98.1809 25.5413 98.1865 25.7851 98.1865 26.0732C98.1865 26.3613 98.1809 26.6051 98.1698 26.8046C98.1255 27.5581 97.9427 28.2174 97.6213 28.7825C97.3111 29.3476 96.8512 29.7853 96.2418 30.0956C95.6434 30.4059 94.901 30.561 94.0145 30.561ZM94.0145 28.9155C94.6018 28.9155 95.0561 28.7326 95.3774 28.367C95.6988 27.9902 95.8761 27.4417 95.9093 26.7215C95.9204 26.5552 95.9259 26.3392 95.9259 26.0732C95.9259 25.8073 95.9204 25.5912 95.9093 25.425C95.8761 24.7158 95.6988 24.1729 95.3774 23.7961C95.0561 23.4193 94.6018 23.231 94.0145 23.231C93.4272 23.231 92.9729 23.4193 92.6515 23.7961C92.3302 24.1729 92.1529 24.7158 92.1197 25.425C92.1086 25.5912 92.103 25.8073 92.103 26.0732C92.103 26.3392 92.1086 26.5552 92.1197 26.7215C92.1529 27.4417 92.3302 27.9902 92.6515 28.367C92.9729 28.7326 93.4272 28.9155 94.0145 28.9155ZM99.869 30.3948C99.7581 30.3948 99.664 30.356 99.5864 30.2784C99.5088 30.2009 99.47 30.1067 99.47 29.9959V22.1672C99.47 22.0453 99.5088 21.9456 99.5864 21.868C99.664 21.7905 99.7581 21.7517 99.869 21.7517H101.215C101.326 21.7517 101.42 21.7905 101.498 21.868C101.586 21.9456 101.631 22.0453 101.631 22.1672V22.8487C101.886 22.4941 102.213 22.2226 102.611 22.0342C103.021 21.8459 103.492 21.7517 104.024 21.7517H104.706C104.828 21.7517 104.922 21.7905 104.988 21.868C105.066 21.9456 105.105 22.0398 105.105 22.1506V23.3473C105.105 23.4581 105.066 23.5523 104.988 23.6299C104.922 23.7075 104.828 23.7462 104.706 23.7462H103.409C102.877 23.7462 102.462 23.8958 102.163 24.195C101.875 24.4942 101.731 24.9042 101.731 25.425V29.9959C101.731 30.1067 101.692 30.2009 101.614 30.2784C101.537 30.356 101.437 30.3948 101.315 30.3948H99.869ZM109.453 30.561C108.223 30.561 107.247 30.2064 106.527 29.4972C105.807 28.788 105.419 27.7797 105.364 26.4721C105.353 26.3613 105.347 26.2228 105.347 26.0566C105.347 25.8793 105.353 25.7408 105.364 25.6411C105.408 24.81 105.596 24.0897 105.929 23.4803C106.272 22.8708 106.743 22.4054 107.342 22.0841C107.94 21.7517 108.644 21.5855 109.453 21.5855C110.35 21.5855 111.104 21.7738 111.713 22.1506C112.323 22.5163 112.782 23.0315 113.093 23.6964C113.403 24.3501 113.558 25.1092 113.558 25.9735V26.3225C113.558 26.4334 113.519 26.5275 113.442 26.6051C113.364 26.6827 113.264 26.7215 113.143 26.7215H107.624C107.624 26.7215 107.624 26.7381 107.624 26.7713C107.624 26.8046 107.624 26.8323 107.624 26.8544C107.635 27.2423 107.707 27.6024 107.84 27.9348C107.984 28.2562 108.189 28.5166 108.455 28.716C108.732 28.9155 109.059 29.0152 109.436 29.0152C109.746 29.0152 110.007 28.9709 110.217 28.8822C110.428 28.7825 110.599 28.6717 110.732 28.5498C110.865 28.4279 110.96 28.3282 111.015 28.2506C111.115 28.1177 111.192 28.0401 111.248 28.0179C111.314 27.9847 111.408 27.9681 111.53 27.9681H112.96C113.07 27.9681 113.159 28.0013 113.226 28.0678C113.303 28.1343 113.336 28.2174 113.325 28.3171C113.314 28.4944 113.22 28.7105 113.043 28.9653C112.877 29.2202 112.633 29.4695 112.311 29.7133C111.99 29.9571 111.586 30.1621 111.098 30.3283C110.622 30.4834 110.073 30.561 109.453 30.561ZM107.624 25.3253H111.298V25.2754C111.298 24.8432 111.226 24.4665 111.081 24.1451C110.937 23.8238 110.727 23.5689 110.45 23.3806C110.173 23.1922 109.84 23.098 109.453 23.098C109.065 23.098 108.732 23.1922 108.455 23.3806C108.178 23.5689 107.968 23.8238 107.824 24.1451C107.691 24.4665 107.624 24.8432 107.624 25.2754V25.3253Z" fill="white"/>
</g>
<defs>
<clipPath id="clip0_7005_26757">
<rect width="128" height="41" fill="white"/>
</clipPath>
</defs>
</svg>
