<svg width="128" height="41" viewBox="0 0 128 41" fill="none" xmlns="http://www.w3.org/2000/svg">
<g clip-path="url(#clip0_7005_26758)">
<rect width="127.863" height="41.2529" rx="10.2894" fill="#474747"/>
<path d="M41.7978 16.6244C41.1941 16.6244 40.6796 16.5112 40.2543 16.2848C39.8359 16.0585 39.5135 15.7395 39.2871 15.3279C39.0676 14.9163 38.9442 14.4327 38.9167 13.8771C38.9099 13.5753 38.9064 13.2563 38.9064 12.9202C38.9064 12.5772 38.9099 12.2514 38.9167 11.9427C38.9442 11.3871 39.0676 10.9069 39.2871 10.5022C39.5135 10.0975 39.8393 9.78192 40.2646 9.55556C40.6899 9.32919 41.201 9.21601 41.7978 9.21601C42.2848 9.21601 42.7066 9.2846 43.0633 9.42179C43.42 9.55899 43.7116 9.73391 43.9379 9.94655C44.1712 10.1523 44.3427 10.3684 44.4524 10.5948C44.569 10.8212 44.6308 11.0201 44.6376 11.1916C44.6445 11.2533 44.6273 11.3048 44.5862 11.3459C44.545 11.3802 44.4901 11.3974 44.4215 11.3974H43.8145C43.7459 11.3974 43.6944 11.3836 43.6601 11.3562C43.6327 11.3288 43.6053 11.2807 43.5778 11.2122C43.5161 11.0338 43.4132 10.8589 43.2691 10.6874C43.1319 10.5159 42.9433 10.3753 42.7032 10.2655C42.47 10.1489 42.1682 10.0906 41.7978 10.0906C41.2558 10.0906 40.8168 10.2381 40.4807 10.533C40.1514 10.828 39.9731 11.315 39.9457 11.9941C39.9251 12.6047 39.9251 13.2152 39.9457 13.8257C39.9731 14.5116 40.1549 15.0055 40.491 15.3073C40.8271 15.6023 41.2661 15.7498 41.808 15.7498C42.1716 15.7498 42.494 15.6846 42.7752 15.5543C43.0633 15.4171 43.2897 15.2079 43.4543 14.9266C43.619 14.6454 43.7013 14.2887 43.7013 13.8565V13.4244H42.1579C42.0893 13.4244 42.031 13.4038 41.983 13.3626C41.9418 13.3146 41.9212 13.2529 41.9212 13.1774V12.8482C41.9212 12.7727 41.9418 12.7144 41.983 12.6732C42.031 12.6252 42.0893 12.6012 42.1579 12.6012H44.4833C44.5587 12.6012 44.617 12.6252 44.6582 12.6732C44.6994 12.7144 44.7199 12.7727 44.7199 12.8482V13.8359C44.7199 14.3984 44.6033 14.8889 44.3701 15.3073C44.1437 15.7258 43.811 16.0516 43.372 16.2848C42.933 16.5112 42.4083 16.6244 41.7978 16.6244ZM48.184 16.6244C47.4775 16.6244 46.915 16.4083 46.4966 15.9761C46.0781 15.5371 45.8483 14.9403 45.8072 14.1858C45.8003 14.0966 45.7969 13.9834 45.7969 13.8462C45.7969 13.7022 45.8003 13.5856 45.8072 13.4964C45.8346 13.0094 45.9478 12.5841 46.1467 12.2205C46.3456 11.8501 46.6166 11.5654 46.9596 11.3665C47.3094 11.1676 47.7176 11.0681 48.184 11.0681C48.7053 11.0681 49.1409 11.1779 49.4908 11.3974C49.8475 11.6169 50.1184 11.929 50.3036 12.3337C50.4888 12.7384 50.5814 13.2117 50.5814 13.7536V13.9286C50.5814 14.004 50.5574 14.0623 50.5094 14.1035C50.4683 14.1446 50.4134 14.1652 50.3448 14.1652H46.7847C46.7847 14.1721 46.7847 14.1858 46.7847 14.2064C46.7847 14.2269 46.7847 14.2441 46.7847 14.2578C46.7984 14.5391 46.8601 14.8032 46.9699 15.0501C47.0796 15.2902 47.2374 15.4857 47.4432 15.6366C47.649 15.7875 47.8959 15.863 48.184 15.863C48.431 15.863 48.6367 15.8252 48.8014 15.7498C48.966 15.6743 49.0998 15.592 49.2027 15.5028C49.3056 15.4068 49.3742 15.3348 49.4085 15.2868C49.4702 15.1976 49.5182 15.1461 49.5525 15.1324C49.5868 15.1118 49.6417 15.1015 49.7171 15.1015H50.211C50.2796 15.1015 50.3345 15.1221 50.3757 15.1633C50.4237 15.1976 50.4443 15.249 50.4374 15.3176C50.4305 15.4205 50.3757 15.5474 50.2728 15.6983C50.1699 15.8424 50.0224 15.9864 49.8303 16.1305C49.6383 16.2745 49.405 16.3946 49.1306 16.4906C48.8563 16.5798 48.5407 16.6244 48.184 16.6244ZM46.7847 13.4552H49.604V13.4244C49.604 13.1157 49.5456 12.8413 49.429 12.6012C49.3193 12.3611 49.1581 12.1725 48.9454 12.0353C48.7328 11.8913 48.479 11.8192 48.184 11.8192C47.8891 11.8192 47.6352 11.8913 47.4226 12.0353C47.2168 12.1725 47.059 12.3611 46.9493 12.6012C46.8395 12.8413 46.7847 13.1157 46.7847 13.4244V13.4552ZM53.8704 16.5215C53.4862 16.5215 53.1741 16.4495 52.934 16.3054C52.6939 16.1545 52.519 15.9453 52.4093 15.6778C52.2995 15.4034 52.2446 15.081 52.2446 14.7105V11.9941H51.4421C51.3735 11.9941 51.3152 11.9736 51.2671 11.9324C51.226 11.8844 51.2054 11.8261 51.2054 11.7575V11.4076C51.2054 11.3391 51.226 11.2842 51.2671 11.243C51.3152 11.195 51.3735 11.171 51.4421 11.171H52.2446V9.45266C52.2446 9.38407 52.2652 9.32919 52.3064 9.28803C52.3544 9.24001 52.4127 9.21601 52.4813 9.21601H52.9649C53.0335 9.21601 53.0884 9.24001 53.1295 9.28803C53.1775 9.32919 53.2015 9.38407 53.2015 9.45266V11.171H54.4774C54.546 11.171 54.6009 11.195 54.6421 11.243C54.6901 11.2842 54.7141 11.3391 54.7141 11.4076V11.7575C54.7141 11.8261 54.6901 11.8844 54.6421 11.9324C54.6009 11.9736 54.546 11.9941 54.4774 11.9941H53.2015V14.6385C53.2015 14.9609 53.2564 15.2147 53.3662 15.3999C53.4759 15.5851 53.6714 15.6778 53.9527 15.6778H54.5803C54.6489 15.6778 54.7038 15.7018 54.745 15.7498C54.793 15.7909 54.817 15.8458 54.817 15.9144V16.2848C54.817 16.3534 54.793 16.4117 54.745 16.4597C54.7038 16.5009 54.6489 16.5215 54.5803 16.5215H53.8704ZM58.5597 16.5215C58.4911 16.5215 58.4328 16.5009 58.3848 16.4597C58.3436 16.4117 58.323 16.3534 58.323 16.2848V11.4076C58.323 11.3391 58.3436 11.2842 58.3848 11.243C58.4328 11.195 58.4911 11.171 58.5597 11.171H59.0536C59.1222 11.171 59.177 11.195 59.2182 11.243C59.2594 11.2842 59.2799 11.3391 59.2799 11.4076V16.2848C59.2799 16.3534 59.2594 16.4117 59.2182 16.4597C59.177 16.5009 59.1222 16.5215 59.0536 16.5215H58.5597ZM58.4774 10.1729C58.4088 10.1729 58.3505 10.1523 58.3024 10.1112C58.2613 10.0632 58.2407 10.0049 58.2407 9.93626V9.38064C58.2407 9.31204 58.2613 9.25716 58.3024 9.21601C58.3505 9.16799 58.4088 9.14398 58.4774 9.14398H59.1256C59.1942 9.14398 59.2491 9.16799 59.2902 9.21601C59.3382 9.25716 59.3622 9.31204 59.3622 9.38064V9.93626C59.3622 10.0049 59.3382 10.0632 59.2902 10.1112C59.2491 10.1523 59.1942 10.1729 59.1256 10.1729H58.4774ZM62.9037 16.5215C62.5196 16.5215 62.2075 16.4495 61.9674 16.3054C61.7273 16.1545 61.5524 15.9453 61.4426 15.6778C61.3329 15.4034 61.278 15.081 61.278 14.7105V11.9941H60.4754C60.4068 11.9941 60.3485 11.9736 60.3005 11.9324C60.2594 11.8844 60.2388 11.8261 60.2388 11.7575V11.4076C60.2388 11.3391 60.2594 11.2842 60.3005 11.243C60.3485 11.195 60.4068 11.171 60.4754 11.171H61.278V9.45266C61.278 9.38407 61.2986 9.32919 61.3397 9.28803C61.3878 9.24001 61.4461 9.21601 61.5147 9.21601H61.9983C62.0669 9.21601 62.1217 9.24001 62.1629 9.28803C62.2109 9.32919 62.2349 9.38407 62.2349 9.45266V11.171H63.5108C63.5794 11.171 63.6343 11.195 63.6754 11.243C63.7235 11.2842 63.7475 11.3391 63.7475 11.4076V11.7575C63.7475 11.8261 63.7235 11.8844 63.6754 11.9324C63.6343 11.9736 63.5794 11.9941 63.5108 11.9941H62.2349V14.6385C62.2349 14.9609 62.2898 15.2147 62.3996 15.3999C62.5093 15.5851 62.7048 15.6778 62.9861 15.6778H63.6137C63.6823 15.6778 63.7372 15.7018 63.7783 15.7498C63.8264 15.7909 63.8504 15.8458 63.8504 15.9144V16.2848C63.8504 16.3534 63.8264 16.4117 63.7783 16.4597C63.7372 16.5009 63.6823 16.5215 63.6137 16.5215H62.9037ZM69.548 16.6244C69.0267 16.6244 68.5911 16.5249 68.2413 16.326C67.8914 16.1271 67.6239 15.8527 67.4387 15.5028C67.2535 15.1461 67.1506 14.7414 67.13 14.2887C67.1232 14.1721 67.1197 14.0246 67.1197 13.8462C67.1197 13.661 67.1232 13.5135 67.13 13.4038C67.1506 12.9442 67.2535 12.5395 67.4387 12.1896C67.6308 11.8398 67.9017 11.5654 68.2516 11.3665C68.6014 11.1676 69.0336 11.0681 69.548 11.0681C70.0625 11.0681 70.4947 11.1676 70.8445 11.3665C71.1943 11.5654 71.4619 11.8398 71.6471 12.1896C71.8391 12.5395 71.9455 12.9442 71.966 13.4038C71.9729 13.5135 71.9763 13.661 71.9763 13.8462C71.9763 14.0246 71.9729 14.1721 71.966 14.2887C71.9455 14.7414 71.8426 15.1461 71.6574 15.5028C71.4722 15.8527 71.2046 16.1271 70.8548 16.326C70.505 16.5249 70.0694 16.6244 69.548 16.6244ZM69.548 15.8321C69.9733 15.8321 70.3129 15.6983 70.5667 15.4308C70.8205 15.1564 70.9577 14.7586 70.9783 14.2372C70.9851 14.1343 70.9886 14.004 70.9886 13.8462C70.9886 13.6885 70.9851 13.5581 70.9783 13.4552C70.9577 12.9339 70.8205 12.5395 70.5667 12.272C70.3129 11.9976 69.9733 11.8604 69.548 11.8604C69.1227 11.8604 68.7798 11.9976 68.5191 12.272C68.2653 12.5395 68.1315 12.9339 68.1178 13.4552C68.111 13.5581 68.1075 13.6885 68.1075 13.8462C68.1075 14.004 68.111 14.1343 68.1178 14.2372C68.1315 14.7586 68.2653 15.1564 68.5191 15.4308C68.7798 15.6983 69.1227 15.8321 69.548 15.8321ZM73.5014 16.5215C73.4328 16.5215 73.3745 16.5009 73.3265 16.4597C73.2853 16.4117 73.2648 16.3534 73.2648 16.2848V11.4076C73.2648 11.3391 73.2853 11.2842 73.3265 11.243C73.3745 11.195 73.4328 11.171 73.5014 11.171H73.985C74.0536 11.171 74.1085 11.195 74.1497 11.243C74.1977 11.2842 74.2217 11.3391 74.2217 11.4076V11.8604C74.4 11.6272 74.623 11.4385 74.8905 11.2945C75.1649 11.1436 75.5147 11.0681 75.94 11.0681C76.3859 11.0681 76.7632 11.1676 77.0718 11.3665C77.3874 11.5586 77.624 11.8295 77.7818 12.1794C77.9396 12.5223 78.0185 12.9236 78.0185 13.3832V16.2848C78.0185 16.3534 77.9979 16.4117 77.9567 16.4597C77.9156 16.5009 77.8607 16.5215 77.7921 16.5215H77.2776C77.209 16.5215 77.1507 16.5009 77.1027 16.4597C77.0616 16.4117 77.041 16.3534 77.041 16.2848V13.4347C77.041 12.9545 76.9244 12.5806 76.6911 12.3131C76.4579 12.0387 76.1149 11.9015 75.6622 11.9015C75.2369 11.9015 74.8939 12.0387 74.6333 12.3131C74.3795 12.5806 74.2525 12.9545 74.2525 13.4347V16.2848C74.2525 16.3534 74.2285 16.4117 74.1805 16.4597C74.1394 16.5009 74.0845 16.5215 74.0159 16.5215H73.5014Z" fill="white"/>
<path d="M43.5525 30.2974C42.6301 30.2974 41.8431 30.1369 41.1915 29.8161C40.5498 29.4953 40.0486 29.0341 39.6876 28.4326C39.3367 27.821 39.1462 27.0942 39.1162 26.252C39.1061 25.8209 39.1011 25.3598 39.1011 24.8685C39.1011 24.3672 39.1061 23.896 39.1162 23.4549C39.1462 22.6228 39.3367 21.911 39.6876 21.3195C40.0486 20.7279 40.5548 20.2718 41.2065 19.951C41.8682 19.6301 42.6502 19.4697 43.5525 19.4697C44.2844 19.4697 44.926 19.57 45.4774 19.7705C46.0288 19.961 46.485 20.2116 46.8459 20.5224C47.2168 20.8232 47.4925 21.149 47.673 21.4999C47.8635 21.8508 47.9637 22.1766 47.9738 22.4774C47.9838 22.5676 47.9587 22.6428 47.8986 22.703C47.8384 22.7631 47.7582 22.7932 47.658 22.7932H46.109C46.0088 22.7932 45.9336 22.7732 45.8834 22.7331C45.8333 22.693 45.7882 22.6328 45.7481 22.5526C45.6679 22.3421 45.5426 22.1365 45.3721 21.936C45.2017 21.7255 44.9711 21.55 44.6804 21.4097C44.3896 21.2693 44.0137 21.1991 43.5525 21.1991C42.8708 21.1991 42.3244 21.3796 41.9133 21.7405C41.5123 22.1014 41.2967 22.698 41.2667 23.5301C41.2366 24.4023 41.2366 25.2846 41.2667 26.1768C41.2967 27.029 41.5173 27.6406 41.9283 28.0115C42.3494 28.3825 42.9008 28.5679 43.5826 28.5679C44.0337 28.5679 44.4347 28.4877 44.7856 28.3273C45.1466 28.1669 45.4273 27.9163 45.6278 27.5754C45.8383 27.2345 45.9436 26.7984 45.9436 26.2671V25.8009H44.1089C44.0087 25.8009 43.9234 25.7658 43.8533 25.6956C43.7831 25.6254 43.748 25.5352 43.748 25.4249V24.6279C43.748 24.5176 43.7831 24.4274 43.8533 24.3572C43.9234 24.287 44.0087 24.2519 44.1089 24.2519H47.7031C47.8134 24.2519 47.8986 24.287 47.9587 24.3572C48.0289 24.4274 48.064 24.5176 48.064 24.6279V26.2069C48.064 27.0491 47.8785 27.7759 47.5076 28.3875C47.1467 28.999 46.6253 29.4702 45.9436 29.8011C45.2719 30.1319 44.4748 30.2974 43.5525 30.2974ZM52.7122 30.2974C51.9102 30.2974 51.2334 30.157 50.682 29.8763C50.1406 29.5956 49.7246 29.1996 49.4338 28.6883C49.1531 28.1769 48.9927 27.5804 48.9526 26.8987C48.9426 26.7182 48.9376 26.4977 48.9376 26.237C48.9376 25.9763 48.9426 25.7558 48.9526 25.5753C48.9927 24.8835 49.1581 24.287 49.4489 23.7857C49.7496 23.2744 50.1707 22.8784 50.7121 22.5977C51.2635 22.317 51.9302 22.1766 52.7122 22.1766C53.4942 22.1766 54.1559 22.317 54.6973 22.5977C55.2487 22.8784 55.6698 23.2744 55.9605 23.7857C56.2613 24.287 56.4317 24.8835 56.4718 25.5753C56.4818 25.7558 56.4868 25.9763 56.4868 26.237C56.4868 26.4977 56.4818 26.7182 56.4718 26.8987C56.4317 27.5804 56.2663 28.1769 55.9755 28.6883C55.6948 29.1996 55.2788 29.5956 54.7273 29.8763C54.186 30.157 53.5143 30.2974 52.7122 30.2974ZM52.7122 28.8086C53.2436 28.8086 53.6546 28.6431 53.9454 28.3123C54.2361 27.9714 54.3965 27.4752 54.4266 26.8235C54.4366 26.6731 54.4416 26.4776 54.4416 26.237C54.4416 25.9964 54.4366 25.8009 54.4266 25.6505C54.3965 25.0089 54.2361 24.5176 53.9454 24.1767C53.6546 23.8359 53.2436 23.6654 52.7122 23.6654C52.1809 23.6654 51.7698 23.8359 51.4791 24.1767C51.1883 24.5176 51.0279 25.0089 50.9978 25.6505C50.9878 25.8009 50.9828 25.9964 50.9828 26.237C50.9828 26.4776 50.9878 26.6731 50.9978 26.8235C51.0279 27.4752 51.1883 27.9714 51.4791 28.3123C51.7698 28.6431 52.1809 28.8086 52.7122 28.8086ZM61.0539 30.2974C60.2518 30.2974 59.5751 30.157 59.0237 29.8763C58.4823 29.5956 58.0662 29.1996 57.7755 28.6883C57.4948 28.1769 57.3344 27.5804 57.2943 26.8987C57.2842 26.7182 57.2792 26.4977 57.2792 26.237C57.2792 25.9763 57.2842 25.7558 57.2943 25.5753C57.3344 24.8835 57.4998 24.287 57.7905 23.7857C58.0913 23.2744 58.5124 22.8784 59.0538 22.5977C59.6052 22.317 60.2719 22.1766 61.0539 22.1766C61.8359 22.1766 62.4975 22.317 63.0389 22.5977C63.5903 22.8784 64.0114 23.2744 64.3021 23.7857C64.6029 24.287 64.7733 24.8835 64.8135 25.5753C64.8235 25.7558 64.8285 25.9763 64.8285 26.237C64.8285 26.4977 64.8235 26.7182 64.8135 26.8987C64.7733 27.5804 64.6079 28.1769 64.3172 28.6883C64.0365 29.1996 63.6204 29.5956 63.069 29.8763C62.5276 30.157 61.8559 30.2974 61.0539 30.2974ZM61.0539 28.8086C61.5852 28.8086 61.9963 28.6431 62.287 28.3123C62.5777 27.9714 62.7382 27.4752 62.7682 26.8235C62.7783 26.6731 62.7833 26.4776 62.7833 26.237C62.7833 25.9964 62.7783 25.8009 62.7682 25.6505C62.7382 25.0089 62.5777 24.5176 62.287 24.1767C61.9963 23.8359 61.5852 23.6654 61.0539 23.6654C60.5225 23.6654 60.1115 23.8359 59.8207 24.1767C59.53 24.5176 59.3696 25.0089 59.3395 25.6505C59.3295 25.8009 59.3244 25.9964 59.3244 26.237C59.3244 26.4776 59.3295 26.6731 59.3395 26.8235C59.3696 27.4752 59.53 27.9714 59.8207 28.3123C60.1115 28.6431 60.5225 28.8086 61.0539 28.8086ZM69.4707 33.4554C68.7388 33.4554 68.1373 33.3602 67.6661 33.1697C67.1949 32.9792 66.824 32.7486 66.5533 32.4779C66.2826 32.2072 66.0871 31.9365 65.9668 31.6658C65.8565 31.4052 65.7963 31.1997 65.7863 31.0493C65.7763 30.949 65.8064 30.8588 65.8765 30.7786C65.9567 30.7084 66.047 30.6733 66.1472 30.6733H67.4556C67.5558 30.6733 67.636 30.6934 67.6962 30.7335C67.7563 30.7836 67.8065 30.8688 67.8466 30.9891C67.9067 31.1195 67.9869 31.2598 68.0872 31.4102C68.1874 31.5606 68.3378 31.6859 68.5383 31.7862C68.7489 31.8964 69.0346 31.9516 69.3955 31.9516C69.7765 31.9516 70.0973 31.8964 70.358 31.7862C70.6186 31.6759 70.8141 31.4904 70.9445 31.2297C71.0848 30.9691 71.155 30.6081 71.155 30.147V29.1244C70.9144 29.4151 70.6036 29.6507 70.2226 29.8312C69.8517 30.0116 69.3905 30.1019 68.8391 30.1019C68.2977 30.1019 67.8315 30.0166 67.4405 29.8462C67.0495 29.6657 66.7237 29.4201 66.463 29.1093C66.2024 28.7885 66.0019 28.4125 65.8615 27.9814C65.7312 27.5503 65.656 27.0741 65.6359 26.5528C65.6259 26.2821 65.6259 26.0114 65.6359 25.7407C65.656 25.2395 65.7312 24.7733 65.8615 24.3422C65.9918 23.9111 66.1873 23.5351 66.448 23.2143C66.7187 22.8834 67.0495 22.6278 67.4405 22.4473C67.8315 22.2669 68.2977 22.1766 68.8391 22.1766C69.4106 22.1766 69.8918 22.2869 70.2828 22.5075C70.6738 22.718 70.9946 22.9837 71.2452 23.3045V22.703C71.2452 22.5927 71.2803 22.5025 71.3505 22.4323C71.4207 22.3621 71.5059 22.327 71.6062 22.327H72.8243C72.9245 22.327 73.0097 22.3621 73.0799 22.4323C73.1501 22.5025 73.1852 22.5927 73.1852 22.703L73.2002 29.9515C73.2002 30.6733 73.0649 31.2949 72.7942 31.8162C72.5235 32.3376 72.1124 32.7386 71.561 33.0193C71.0197 33.31 70.3229 33.4554 69.4707 33.4554ZM69.3955 28.5078C69.8066 28.5078 70.1374 28.4176 70.388 28.2371C70.6387 28.0566 70.8242 27.821 70.9445 27.5303C71.0648 27.2396 71.135 26.9438 71.155 26.643C71.165 26.5127 71.17 26.3473 71.17 26.1468C71.17 25.9463 71.165 25.7858 71.155 25.6655C71.135 25.3547 71.0648 25.059 70.9445 24.7783C70.8242 24.4875 70.6387 24.2519 70.388 24.0715C70.1374 23.881 69.8066 23.7857 69.3955 23.7857C68.9845 23.7857 68.6536 23.881 68.403 24.0715C68.1523 24.2519 67.9719 24.4925 67.8616 24.7933C67.7613 25.0941 67.7012 25.4249 67.6811 25.7858C67.6611 26.0265 67.6611 26.2721 67.6811 26.5227C67.7012 26.8736 67.7613 27.2045 67.8616 27.5153C67.9719 27.816 68.1523 28.0566 68.403 28.2371C68.6536 28.4176 68.9845 28.5078 69.3955 28.5078ZM75.0215 30.147C74.9212 30.147 74.836 30.1119 74.7658 30.0417C74.6956 29.9715 74.6605 29.8863 74.6605 29.7861V19.8307C74.6605 19.7304 74.6956 19.6452 74.7658 19.575C74.836 19.5048 74.9212 19.4697 75.0215 19.4697H76.2696C76.3699 19.4697 76.4551 19.5048 76.5253 19.575C76.5955 19.6452 76.6306 19.7304 76.6306 19.8307V29.7861C76.6306 29.8863 76.5955 29.9715 76.5253 30.0417C76.4551 30.1119 76.3699 30.147 76.2696 30.147H75.0215ZM81.436 30.2974C80.3231 30.2974 79.4409 29.9765 78.7892 29.3349C78.1375 28.6933 77.7867 27.7809 77.7365 26.5979C77.7265 26.4977 77.7215 26.3723 77.7215 26.222C77.7215 26.0616 77.7265 25.9362 77.7365 25.846C77.7766 25.0941 77.9471 24.4424 78.2478 23.891C78.5586 23.3396 78.9847 22.9185 79.5261 22.6278C80.0675 22.327 80.7041 22.1766 81.436 22.1766C82.248 22.1766 82.9298 22.3471 83.4812 22.6879C84.0326 23.0188 84.4486 23.485 84.7294 24.0865C85.0101 24.678 85.1504 25.3648 85.1504 26.1468V26.4626C85.1504 26.5628 85.1153 26.648 85.0452 26.7182C84.975 26.7884 84.8848 26.8235 84.7745 26.8235H79.7817C79.7817 26.8235 79.7817 26.8385 79.7817 26.8686C79.7817 26.8987 79.7817 26.9238 79.7817 26.9438C79.7918 27.2947 79.8569 27.6205 79.9772 27.9213C80.1076 28.212 80.293 28.4476 80.5337 28.6281C80.7843 28.8086 81.0801 28.8988 81.4209 28.8988C81.7016 28.8988 81.9372 28.8587 82.1277 28.7785C82.3182 28.6883 82.4736 28.588 82.5939 28.4777C82.7142 28.3674 82.7994 28.2772 82.8496 28.207C82.9398 28.0867 83.01 28.0165 83.0601 27.9965C83.1203 27.9664 83.2055 27.9514 83.3158 27.9514H84.6091C84.7093 27.9514 84.7895 27.9814 84.8497 28.0416C84.9198 28.1018 84.9499 28.1769 84.9399 28.2672C84.9299 28.4276 84.8447 28.6231 84.6842 28.8537C84.5339 29.0843 84.3133 29.3098 84.0226 29.5304C83.7318 29.751 83.3659 29.9364 82.9248 30.0868C82.4937 30.2272 81.9974 30.2974 81.436 30.2974ZM79.7817 25.5603H83.1052V25.5152C83.1052 25.1242 83.0401 24.7833 82.9097 24.4925C82.7794 24.2018 82.5889 23.9712 82.3383 23.8008C82.0876 23.6303 81.7869 23.5451 81.436 23.5451C81.0851 23.5451 80.7843 23.6303 80.5337 23.8008C80.283 23.9712 80.0925 24.2018 79.9622 24.4925C79.8419 24.7833 79.7817 25.1242 79.7817 25.5152V25.5603ZM89.6086 30.147C89.5084 30.147 89.4231 30.1119 89.353 30.0417C89.2828 29.9715 89.2477 29.8863 89.2477 29.7861V19.9961C89.2477 19.8858 89.2828 19.7956 89.353 19.7254C89.4231 19.6552 89.5084 19.6201 89.6086 19.6201H93.6389C94.4209 19.6201 95.1026 19.7454 95.6841 19.9961C96.2656 20.2367 96.7167 20.6076 97.0376 21.1089C97.3584 21.6002 97.5188 22.2167 97.5188 22.9586C97.5188 23.7106 97.3584 24.3321 97.0376 24.8234C96.7167 25.3046 96.2656 25.6655 95.6841 25.9062C95.1026 26.1468 94.4209 26.2671 93.6389 26.2671H91.3982V29.7861C91.3982 29.8863 91.3631 29.9715 91.2929 30.0417C91.2328 30.1119 91.1475 30.147 91.0373 30.147H89.6086ZM91.3681 24.5978H93.5637C94.1452 24.5978 94.5913 24.4625 94.9021 24.1918C95.2129 23.9111 95.3683 23.5 95.3683 22.9586C95.3683 22.4574 95.2229 22.0563 94.9322 21.7556C94.6415 21.4448 94.1853 21.2894 93.5637 21.2894H91.3681V24.5978ZM98.7982 30.147C98.6979 30.147 98.6127 30.1119 98.5425 30.0417C98.4723 29.9715 98.4373 29.8863 98.4373 29.7861V19.8307C98.4373 19.7304 98.4723 19.6452 98.5425 19.575C98.6127 19.5048 98.6979 19.4697 98.7982 19.4697H100.046C100.147 19.4697 100.232 19.5048 100.302 19.575C100.372 19.6452 100.407 19.7304 100.407 19.8307V29.7861C100.407 29.8863 100.372 29.9715 100.302 30.0417C100.232 30.1119 100.147 30.147 100.046 30.147H98.7982ZM104.115 30.2974C103.594 30.2974 103.122 30.1971 102.701 29.9966C102.28 29.7861 101.944 29.5103 101.694 29.1695C101.453 28.8186 101.333 28.4276 101.333 27.9965C101.333 27.2947 101.614 26.7383 102.175 26.3272C102.746 25.9062 103.498 25.6254 104.431 25.4851L106.491 25.1843V24.8685C106.491 24.4474 106.386 24.1216 106.175 23.891C105.965 23.6604 105.604 23.5451 105.092 23.5451C104.731 23.5451 104.436 23.6203 104.205 23.7707C103.985 23.9111 103.819 24.1016 103.709 24.3422C103.629 24.4725 103.513 24.5377 103.363 24.5377H102.175C102.065 24.5377 101.979 24.5076 101.919 24.4474C101.869 24.3873 101.844 24.3071 101.844 24.2068C101.854 24.0464 101.919 23.8509 102.04 23.6203C102.16 23.3897 102.35 23.1692 102.611 22.9586C102.872 22.7381 103.208 22.5526 103.619 22.4022C104.03 22.2518 104.526 22.1766 105.107 22.1766C105.739 22.1766 106.27 22.2568 106.701 22.4173C107.143 22.5676 107.494 22.7732 107.754 23.0338C108.015 23.2945 108.205 23.6003 108.326 23.9512C108.446 24.3021 108.506 24.673 108.506 25.064V29.7861C108.506 29.8863 108.471 29.9715 108.401 30.0417C108.331 30.1119 108.245 30.147 108.145 30.147H106.927C106.817 30.147 106.727 30.1119 106.656 30.0417C106.596 29.9715 106.566 29.8863 106.566 29.7861V29.1996C106.436 29.39 106.26 29.5705 106.04 29.7409C105.819 29.9013 105.549 30.0367 105.228 30.147C104.917 30.2472 104.546 30.2974 104.115 30.2974ZM104.626 28.8687C104.977 28.8687 105.293 28.7935 105.574 28.6431C105.864 28.4928 106.09 28.2622 106.25 27.9514C106.421 27.6306 106.506 27.2295 106.506 26.7483V26.4325L105.002 26.6731C104.411 26.7633 103.97 26.9087 103.679 27.1092C103.388 27.3097 103.243 27.5554 103.243 27.8461C103.243 28.0667 103.308 28.2572 103.438 28.4176C103.579 28.5679 103.754 28.6832 103.964 28.7634C104.175 28.8336 104.396 28.8687 104.626 28.8687ZM111.085 33.0043C111.005 33.0043 110.935 32.9742 110.875 32.914C110.815 32.8539 110.785 32.7837 110.785 32.7035C110.785 32.6634 110.785 32.6233 110.785 32.5832C110.795 32.5531 110.815 32.513 110.845 32.4629L112.018 29.6808L109.13 22.8684C109.09 22.7681 109.07 22.698 109.07 22.6579C109.08 22.5676 109.115 22.4924 109.175 22.4323C109.236 22.3621 109.311 22.327 109.401 22.327H110.619C110.739 22.327 110.83 22.3571 110.89 22.4173C110.95 22.4774 110.995 22.5426 111.025 22.6128L113.025 27.5303L115.086 22.6128C115.116 22.5325 115.161 22.4674 115.221 22.4173C115.281 22.3571 115.371 22.327 115.492 22.327H116.695C116.775 22.327 116.845 22.3571 116.905 22.4173C116.975 22.4774 117.01 22.5476 117.01 22.6278C117.01 22.6879 116.99 22.7681 116.95 22.8684L112.694 32.7185C112.654 32.7987 112.604 32.8639 112.544 32.914C112.484 32.9742 112.394 33.0043 112.273 33.0043H111.085Z" fill="white"/>
<path d="M28.0858 23.1565C30.5209 21.8776 32.383 20.9032 32.5422 20.827C33.0515 20.5682 33.5767 19.8831 32.5422 19.3502C32.2079 19.1827 30.4095 18.2388 28.0858 17.0208L24.8867 20.0962L28.0858 23.1565Z" fill="#FFD400"/>
<path d="M24.8878 20.0964L14.6699 29.9471C14.9087 29.9775 15.1792 29.9166 15.4975 29.7492C16.166 29.399 23.2644 25.6841 28.0868 23.1567L24.8878 20.0964Z" fill="#FF3333"/>
<path d="M24.8861 20.096L28.0852 17.0205C28.0852 17.0205 16.2121 10.8239 15.4959 10.4585C15.2253 10.3062 14.9229 10.2605 14.6523 10.3062L24.8861 20.096Z" fill="#48FF48"/>
<path d="M24.8864 20.0952L14.6526 10.3054C14.2388 10.3968 13.8887 10.7469 13.8887 11.4625C13.8887 12.6044 13.8887 27.8295 13.8887 28.7887C13.8887 29.4434 14.1592 29.9154 14.6685 29.9611L24.8864 20.0952Z" fill="#3BCCFF"/>
</g>
<defs>
<clipPath id="clip0_7005_26758">
<rect width="128" height="41" fill="white"/>
</clipPath>
</defs>
</svg>
