<svg width="27" height="27" viewBox="0 0 27 27" fill="none" xmlns="http://www.w3.org/2000/svg">
<circle cx="13.5" cy="13.5" r="12.75" stroke="#AA7D68" stroke-width="1.5"/>
<path d="M19.8633 14.2502C20.2775 14.2502 20.6133 13.9144 20.6133 13.5002C20.6133 13.086 20.2775 12.7502 19.8633 12.7502V14.2502ZM6.60503 12.9699C6.31214 13.2627 6.31214 13.7376 6.60503 14.0305L11.378 18.8035C11.6709 19.0964 12.1458 19.0964 12.4387 18.8035C12.7316 18.5106 12.7316 18.0357 12.4387 17.7428L8.19602 13.5002L12.4387 9.25754C12.7316 8.96465 12.7316 8.48978 12.4387 8.19688C12.1458 7.90399 11.6709 7.90399 11.378 8.19688L6.60503 12.9699ZM19.8633 12.7502L7.13536 12.7502V14.2502L19.8633 14.2502V12.7502Z" fill="#AA7D68"/>
</svg>
